<svg width="245" height="245" viewBox="0 0 245 245" fill="none" xmlns="http://www.w3.org/2000/svg">
<g clip-path="url(#clip0_396_8)">
<rect x="9" y="17" width="227" height="227" rx="22" fill="#CDCDCD"/>
<rect x="9" y="9" width="227" height="227" rx="22" fill="#F5F5F5"/>
<path d="M89.5959 212V33.8182H159.894C173.351 33.8182 184.835 36.2253 194.347 41.0394C203.918 45.7956 211.197 52.5528 216.185 61.3111C221.231 70.0114 223.754 80.2487 223.754 92.0231C223.754 103.855 221.202 114.035 216.098 122.561C210.994 131.029 203.599 137.526 193.912 142.05C184.284 146.574 172.626 148.836 158.937 148.836H111.869V118.559H152.847C160.039 118.559 166.013 117.573 170.77 115.601C175.526 113.629 179.064 110.671 181.384 106.727C183.762 102.782 184.951 97.8813 184.951 92.0231C184.951 86.1069 183.762 81.1187 181.384 77.0586C179.064 72.9985 175.497 69.9244 170.683 67.8363C165.926 65.6902 159.923 64.6172 152.673 64.6172H127.268V212H89.5959ZM185.821 130.913L230.105 212H188.518L145.191 130.913H185.821Z" fill="#FF5700"/>
<rect x="74" y="74" width="62" height="33" fill="#F5F5F5"/>
<path d="M141 91L75.75 128.239L75.75 53.7609L141 91Z" fill="#F5F5F5"/>
<path d="M83.879 167.94L68.2292 168.903C67.9617 167.565 67.3865 166.361 66.5037 165.291C65.6209 164.194 64.4572 163.325 63.0126 162.683C61.5947 162.014 59.896 161.68 57.9163 161.68C55.2679 161.68 53.0341 162.241 51.215 163.365C49.3958 164.462 48.4863 165.933 48.4863 167.779C48.4863 169.25 49.0748 170.494 50.2519 171.511C51.429 172.528 53.4488 173.344 56.3112 173.959L67.4668 176.206C73.4592 177.437 77.9267 179.416 80.8695 182.145C83.8122 184.874 85.2835 188.458 85.2835 192.899C85.2835 196.939 84.0931 200.483 81.7121 203.533C79.358 206.583 76.121 208.964 72.0012 210.676C67.9082 212.361 63.1865 213.204 57.8361 213.204C49.6767 213.204 43.176 211.505 38.3339 208.108C33.5186 204.683 30.6963 200.029 29.867 194.143L46.6805 193.26C47.1888 195.748 48.4194 197.648 50.3723 198.958C52.3252 200.243 54.8265 200.885 57.8762 200.885C60.8724 200.885 63.2801 200.309 65.0992 199.159C66.9451 197.982 67.8814 196.471 67.9082 194.625C67.8814 193.073 67.226 191.802 65.9419 190.812C64.6578 189.796 62.6782 189.02 60.003 188.485L49.329 186.358C43.3098 185.154 38.8289 183.068 35.8861 180.098C32.9702 177.129 31.5122 173.344 31.5122 168.742C31.5122 164.783 32.5823 161.372 34.7224 158.51C36.8893 155.647 39.9257 153.44 43.8315 151.888C47.764 150.337 52.3653 149.561 57.6354 149.561C65.4202 149.561 71.5464 151.206 76.014 154.497C80.5083 157.787 83.13 162.268 83.879 167.94Z" fill="#373737"/>
<path d="M52 194.5L22.75 211.387L22.75 177.613L52 194.5Z" fill="#F5F5F5"/>
<path d="M88.7441 187.206L63.5153 167.997L84.7229 155.753L88.7441 187.206Z" fill="#F5F5F5"/>
</g>
<defs>
<clipPath id="clip0_396_8">
<rect width="245" height="245" fill="white"/>
</clipPath>
</defs>
</svg>
